<svg preserveAspectRatio="none" width="100%" height="100%" overflow="visible" style="display: block;" viewBox="0 0 12 12" fill="none" xmlns="http://www.w3.org/2000/svg">
<g id="information_line">
<g id="MingCute">
</g>
<path id="&#229;&#189;&#162;&#231;&#138;&#182;" d="M6 0.999985C8.7614 0.999985 11 3.23856 11 5.99998C11 8.76138 8.7614 11 6 11C3.23857 11 1 8.76138 1 5.99998C1 3.23856 3.23857 0.999985 6 0.999985ZM6 1.99998C3.79086 1.99998 2 3.79084 2 5.99998C2 8.20913 3.79086 9.99998 6 9.99998C8.20915 9.99998 10 8.20913 10 5.99998C10 3.79084 8.20915 1.99998 6 1.99998ZM5.995 4.99998C6.2739 4.99998 6.5 5.22608 6.5 5.50498V8.06688C6.64945 8.15333 6.75 8.31493 6.75 8.49998C6.75 8.77613 6.52615 8.99998 6.25 8.99998H6.005C5.72605 8.99998 5.5 8.77388 5.5 8.49498V5.99998C5.22385 5.99998 5 5.77613 5 5.49998C5 5.22383 5.22385 4.99998 5.5 4.99998H5.995ZM6 3.49998C6.27615 3.49998 6.5 3.72384 6.5 3.99998C6.5 4.27612 6.27615 4.49998 6 4.49998C5.72385 4.49998 5.5 4.27612 5.5 3.99998C5.5 3.72384 5.72385 3.49998 6 3.49998Z" fill="var(--fill-0, #757575)"/>
</g>
</svg>
