<svg preserveAspectRatio="none" width="100%" height="100%" overflow="visible" style="display: block;" viewBox="0 0 15.2794 20.0593" fill="none" xmlns="http://www.w3.org/2000/svg">
<g id="Location Tick">
<path id="Vector" fill-rule="evenodd" clip-rule="evenodd" d="M10.2952 17.8581C12.5009 15.0454 15.2793 10.959 15.2793 8.22095C15.2793 3.68066 11.8589 3.02345e-05 7.63964 3.02345e-05C3.42038 3.02345e-05 0 3.68066 0 8.22095C0 10.959 2.7784 15.0454 4.98411 17.8581C6.13487 19.3256 6.71024 20.0593 7.63964 20.0593C8.56903 20.0593 9.14441 19.3256 10.2952 17.8581ZM11.0622 7.13409C11.3104 6.82608 11.2619 6.3752 10.9539 6.12702C10.6459 5.87883 10.195 5.92733 9.94681 6.23534L8.01636 8.63112C7.61998 9.12304 7.36988 9.43069 7.16173 9.62508C7.06391 9.71643 7.00143 9.75707 6.96553 9.77504C6.9388 9.78841 6.92924 9.78835 6.92412 9.78832H6.92273C6.9176 9.78835 6.90805 9.78841 6.88132 9.77504C6.84541 9.75707 6.78293 9.71643 6.68512 9.62508C6.47697 9.43069 6.22686 9.12304 5.83048 8.63112L5.33247 8.01306C5.08429 7.70505 4.63341 7.65655 4.3254 7.90474C4.01739 8.15292 3.96889 8.6038 4.21708 8.91181L4.74619 9.56847C5.10193 10.01 5.41577 10.3996 5.70743 10.672C6.02057 10.9644 6.40991 11.2208 6.92342 11.2208C7.43694 11.2208 7.82627 10.9644 8.13942 10.672C8.43108 10.3996 8.74491 10.01 9.10064 9.56849L11.0622 7.13409Z" fill="var(--fill-0, #143C3D)"/>
</g>
</svg>
