<svg preserveAspectRatio="none" width="100%" height="100%" overflow="visible" style="display: block;" viewBox="0 0 18.6217 16.1406" fill="none" xmlns="http://www.w3.org/2000/svg">
<g id="Map">
<g id="Vector">
<path d="M5.72978 3.03984e-06C4.81617 0.11996 3.926 0.470443 3.1514 1.05139L1.0505 2.62706C0.389229 3.12302 5.28097e-05 3.90137 5.28097e-05 4.72796V12.9683C5.28097e-05 15.0816 2.41266 16.2879 4.10328 15.0199C4.59557 14.6507 5.15304 14.4124 5.72978 14.3051V3.03984e-06Z" fill="var(--fill-0, #ADADAD)"/>
<path d="M7.16222 14.3051C7.73896 14.4124 8.29643 14.6507 8.78872 15.0199L8.88113 15.0892C9.65572 15.6702 10.5459 16.0207 11.4595 16.1406V1.83555C10.8828 1.72818 10.3253 1.48991 9.83301 1.1207L9.74059 1.05139C8.966 0.470443 8.07582 0.11996 7.16222 3.0401e-06V14.3051Z" fill="var(--fill-0, #ADADAD)"/>
<path d="M12.8919 1.83555V16.1406C13.8056 16.0207 14.6957 15.6702 15.4703 15.0892L17.5712 13.5135C18.2325 13.0176 18.6217 12.2392 18.6217 11.4126V3.17231C18.6217 1.05903 16.2091 -0.147268 14.5184 1.1207C14.0262 1.48991 13.4687 1.72818 12.8919 1.83555Z" fill="var(--fill-0, #ADADAD)"/>
</g>
</g>
</svg>
