<svg preserveAspectRatio="none" width="100%" height="100%" overflow="visible" style="display: block;" viewBox="0 0 23.2342 22.917" fill="none" xmlns="http://www.w3.org/2000/svg">
<path id="Union" d="M13.2143 13.6758C13.5841 13.6758 13.8315 13.919 13.8315 14.2246V17.5674C13.8315 17.9319 14.0763 18.1748 14.3833 18.1748H16.0434C16.3503 18.1748 16.472 18.355 16.228 18.5391C16.228 18.5391 16.2281 18.5398 12.0493 22.7334C11.9236 22.8547 11.7719 22.917 11.6166 22.917C11.4652 22.917 11.3099 22.8547 11.1879 22.7334C11.1879 22.7334 11.1881 22.7327 7.00923 18.5391C6.76152 18.355 6.88313 18.1749 7.18989 18.1748H8.97212C9.28276 18.1748 9.52778 17.9319 9.52778 17.5674V14.2246C9.52778 13.919 9.77553 13.6758 10.0825 13.6758H13.2143ZM4.73091 6.69238C4.80851 6.72917 4.85681 6.83579 4.85688 6.99023V15.8643C4.8568 16.0187 4.8085 16.1102 4.73091 16.1396C4.65695 16.1689 4.54987 16.1398 4.42427 16.0479C4.42087 16.0444 4.30258 15.9256 0.183055 11.792C-0.0610183 11.6116 -0.0610183 11.243 0.183055 11C0.189381 10.9937 0.349816 10.8349 4.42427 6.80664C4.54982 6.68531 4.65696 6.65581 4.73091 6.69238ZM18.6166 6.78711C18.6869 6.76502 18.7801 6.81014 18.8725 6.93164C18.8812 6.94008 19.0673 7.12075 23.0512 11.0029C23.2952 11.2459 23.2952 11.6145 23.0512 11.7949C23.0512 11.7949 23.0512 11.7951 18.8725 15.9297C18.7801 16.0512 18.6869 16.0808 18.6166 16.0439C18.5465 16.007 18.5024 15.8996 18.5024 15.7451V7.05273C18.5024 6.9019 18.5465 6.80929 18.6166 6.78711ZM12.0502 0.118164C12.0581 0.12594 12.2381 0.303843 16.351 4.37402C16.5358 4.61697 16.4724 4.80078 16.1655 4.80078H14.3833C14.0764 4.8008 13.8326 5.04412 13.8325 5.34961C13.8325 5.34961 13.8325 5.34981 13.8325 8.50879C13.8325 8.81438 13.5841 9.05762 13.2143 9.05762H10.0825C9.77553 9.05762 9.52778 8.81438 9.52778 8.50879V5.34961C9.52768 5.04414 9.28362 4.80084 8.97309 4.80078H7.0688C6.7619 4.80078 6.69844 4.61698 6.88325 4.37402C6.88325 4.37402 6.88361 4.37415 11.1879 0.118164L11.4692 0H11.7651L12.0502 0.118164Z" fill="var(--fill-0, #ED1C24)"/>
</svg>
