<svg preserveAspectRatio="none" width="100%" height="100%" overflow="visible" style="display: block;" viewBox="0 0 24 24" fill="none" xmlns="http://www.w3.org/2000/svg">
<g id="Icon / Line / Pen">
<path id="Vector 13" d="M12.8374 7.95203L13.0543 7.73511C13.8111 6.97837 14.1894 6.6 14.6596 6.6C15.1298 6.6 15.5082 6.97837 16.2649 7.73511C17.0216 8.49185 17.4 8.87022 17.4 9.3404C17.4 9.81058 17.0216 10.189 16.2649 10.9457L16.048 11.1626M12.8374 7.95203L7.26763 13.5218C6.93333 13.8561 6.76619 14.0233 6.67969 14.2362C6.59319 14.4491 6.59643 14.6855 6.60291 15.1582L6.61804 16.2625C6.62518 16.7843 6.62876 17.0452 6.79178 17.2082C6.9548 17.3713 7.2157 17.3748 7.73749 17.382L8.84182 17.3971C9.31453 17.4036 9.5509 17.4068 9.76383 17.3203C9.97676 17.2338 10.1439 17.0667 10.4782 16.7324L16.048 11.1626M12.8374 7.95203L16.048 11.1626M12.8526 17.3971L17.4 17.3971" stroke="var(--stroke-0, #757575)" stroke-width="1.2" stroke-linecap="round"/>
</g>
</svg>
