<svg preserveAspectRatio="none" width="100%" height="100%" overflow="visible" style="display: block;" viewBox="0 0 36 36" fill="none" xmlns="http://www.w3.org/2000/svg">
<g id="present-svgrepo-com (1) 1">
<path id="Vector" d="M22.7115 12.1995H26.9651C27.9844 12.1995 28.8281 13.0084 28.8281 14.0625V20.4615H18.7031V13.0084C18.351 12.9026 18.0349 12.762 17.8245 12.5516C17.7896 12.5516 17.7896 12.5168 17.7536 12.5168C17.7536 12.5168 17.7536 12.5516 17.7188 12.5516C17.4724 12.7631 17.1911 12.9037 16.875 13.0084V20.4615H6.75V14.0625C6.75 13.0073 7.55887 12.1995 8.57812 12.1995H12.8678C12.375 11.9531 11.9183 11.6021 11.5312 11.2849C9.84375 9.66713 9.52762 7.41713 10.863 6.1515C11.4255 5.65875 12.1635 5.3775 12.9724 5.3775C14.1323 5.3775 15.3281 5.83425 16.3474 6.78375C16.9099 7.31138 17.4375 8.04938 17.7536 8.7525C18.1058 8.04938 18.6323 7.31138 19.1948 6.78375C20.1791 5.83425 21.4448 5.3775 22.5698 5.3775C23.4135 5.3775 24.1515 5.65875 24.6791 6.1515C26.0156 7.41713 25.6984 9.66713 23.976 11.2849C23.6239 11.601 23.1682 11.9531 22.7115 12.1995ZM16.4531 11.1802C16.5938 10.8641 16.2416 9.24638 15.0818 8.15625C14.4844 7.59375 13.6755 7.27763 12.9724 7.27763C12.7609 7.27763 12.4099 7.3125 12.1635 7.524C12.0926 7.59488 11.8822 7.7355 11.8822 8.12138C11.8822 8.57813 12.1635 9.28125 12.8318 9.87975C13.6755 10.6886 15.012 11.2511 15.9964 11.2511C16.3125 11.2511 16.4531 11.1802 16.4531 11.1802ZM19.125 11.1802C19.125 11.1802 19.3005 11.2511 19.5818 11.2511C20.5661 11.2511 21.9026 10.6886 22.7464 9.87975C23.4146 9.28237 23.625 8.57925 23.625 8.12138C23.625 7.73438 23.4495 7.59375 23.4135 7.524C23.1671 7.3125 22.7801 7.27763 22.5698 7.27763C21.9015 7.27763 21.0578 7.59375 20.4604 8.15625C19.3354 9.24638 18.9484 10.8281 19.1239 11.2151V11.1802H19.125ZM16.875 30.5865H8.57812C7.55887 30.5865 6.75 29.7776 6.75 28.7584V22.3245H16.875V30.5865ZM26.9651 30.5865H18.7031V22.3245H28.8281V28.7584C28.8281 29.7776 27.9844 30.5865 26.9651 30.5865Z" fill="var(--fill-0, #143C3D)"/>
</g>
</svg>
