<svg preserveAspectRatio="none" width="100%" height="100%" overflow="visible" style="display: block;" viewBox="0 0 19 19" fill="none" xmlns="http://www.w3.org/2000/svg">
<g id="Icon / Line / Trah Bin">
<path id="Vector" d="M13.1727 12.572L12.6751 12.5225V12.5225L13.1727 12.572ZM6.30233 12.572L5.80478 12.6215V12.6215L6.30233 12.572ZM7.43026 15.0252L7.21569 15.4768H7.21569L7.43026 15.0252ZM6.65032 14.3154L6.22108 14.5718L6.22108 14.5718L6.65032 14.3154ZM12.8247 14.3154L13.2539 14.5718L13.2539 14.5718L12.8247 14.3154ZM12.0447 15.0252L12.2593 15.4768H12.2593L12.0447 15.0252ZM4.75 5.808C4.47386 5.808 4.25 6.03186 4.25 6.308C4.25 6.58414 4.47386 6.808 4.75 6.808V6.308V5.808ZM14.725 6.808C15.0011 6.808 15.225 6.58414 15.225 6.308C15.225 6.03186 15.0011 5.808 14.725 5.808V6.308V6.808ZM10.543 3.84661L10.6731 3.36384V3.36384L10.543 3.84661ZM11.5048 4.81394L11.9879 4.68521V4.68521L11.5048 4.81394ZM8.93204 3.84661L9.06214 4.32939V4.32939L8.93204 3.84661ZM7.97021 4.81394L8.45336 4.94266V4.94266L7.97021 4.81394ZM11.822 8.40947C11.8493 8.13468 11.6487 7.88978 11.3739 7.86245C11.0991 7.83513 10.8542 8.03574 10.8269 8.31053L11.3244 8.36L11.822 8.40947ZM10.3735 12.8705C10.3462 13.1453 10.5468 13.3902 10.8216 13.4175C11.0963 13.4449 11.3412 13.2443 11.3686 12.9695L10.871 12.92L10.3735 12.8705ZM8.64811 8.31053C8.62079 8.03574 8.37588 7.83513 8.1011 7.86245C7.82631 7.88978 7.6257 8.13468 7.65302 8.40947L8.15057 8.36L8.64811 8.31053ZM8.10643 12.9695C8.13375 13.2443 8.37866 13.4449 8.65345 13.4175C8.92824 13.3902 9.12885 13.1453 9.10152 12.8705L8.60398 12.92L8.10643 12.9695ZM10.2853 15.2V14.7H9.18975V15.2V15.7H10.2853V15.2ZM9.18975 15.2V14.7C8.71801 14.7 8.39302 14.6996 8.13922 14.6797C7.89167 14.6602 7.75152 14.6243 7.64483 14.5736L7.43026 15.0252L7.21569 15.4768C7.47686 15.6009 7.75257 15.6524 8.06086 15.6766C8.3629 15.7004 8.73373 15.7 9.18975 15.7V15.2ZM6.30233 12.572L5.80478 12.6215C5.85017 13.0779 5.88668 13.4487 5.94016 13.7482C5.9947 14.0537 6.07281 14.3236 6.22108 14.5718L6.65032 14.3154L7.07956 14.0589C7.01831 13.9564 6.96858 13.8188 6.92459 13.5724C6.87953 13.32 6.8468 12.9945 6.79988 12.5225L6.30233 12.572ZM7.43026 15.0252L7.64483 14.5736C7.41041 14.4622 7.21359 14.2833 7.07956 14.0589L6.65032 14.3154L6.22108 14.5718C6.45614 14.9653 6.80211 15.2803 7.21569 15.4768L7.43026 15.0252ZM13.1727 12.572L12.6751 12.5225C12.6282 12.9945 12.5955 13.32 12.5504 13.5724C12.5064 13.8188 12.4567 13.9564 12.3954 14.0589L12.8247 14.3154L13.2539 14.5718C13.4022 14.3236 13.4803 14.0537 13.5348 13.7482C13.5883 13.4487 13.6248 13.0779 13.6702 12.6215L13.1727 12.572ZM10.2853 15.2V15.7C10.7413 15.7 11.1121 15.7004 11.4141 15.6766C11.7224 15.6524 11.9981 15.6009 12.2593 15.4768L12.0447 15.0252L11.8302 14.5736C11.7235 14.6243 11.5833 14.6602 11.3358 14.6797C11.082 14.6996 10.757 14.7 10.2853 14.7V15.2ZM12.8247 14.3154L12.3954 14.0589C12.2614 14.2833 12.0646 14.4622 11.8302 14.5736L12.0447 15.0252L12.2593 15.4768C12.6729 15.2803 13.0189 14.9653 13.2539 14.5718L12.8247 14.3154ZM11.5511 5.624H11.0511V6.08H11.5511H12.0511V5.624H11.5511ZM7.92386 6.08H8.42386V5.624H7.92386H7.42386V6.08H7.92386ZM9.7375 3.8V4.3C10.1915 4.3 10.3199 4.30434 10.4129 4.32939L10.543 3.84661L10.6731 3.36384C10.4201 3.29566 10.1268 3.3 9.7375 3.3V3.8ZM11.5511 5.624H12.0511C12.0511 5.23196 12.0554 4.93838 11.9879 4.68521L11.5048 4.81394L11.0216 4.94266C11.0469 5.03742 11.0511 5.16791 11.0511 5.624H11.5511ZM10.543 3.84661L10.4129 4.32939C10.7087 4.40912 10.9416 4.64212 11.0216 4.94266L11.5048 4.81394L11.9879 4.68521C11.8165 4.04158 11.316 3.5371 10.6731 3.36384L10.543 3.84661ZM9.7375 3.8V3.3C9.3482 3.3 9.05493 3.29566 8.80194 3.36384L8.93204 3.84661L9.06214 4.32939C9.1551 4.30434 9.28348 4.3 9.7375 4.3V3.8ZM7.92386 5.624H8.42386C8.42386 5.16791 8.42811 5.03742 8.45336 4.94266L7.97021 4.81394L7.48707 4.68521C7.41961 4.93838 7.42386 5.23196 7.42386 5.624H7.92386ZM8.93204 3.84661L8.80194 3.36384C8.159 3.5371 7.65855 4.04158 7.48707 4.68521L7.97021 4.81394L8.45336 4.94266C8.53343 4.64212 8.76627 4.40912 9.06214 4.32939L8.93204 3.84661ZM11.3244 8.36L10.8269 8.31053L10.3735 12.8705L10.871 12.92L11.3686 12.9695L11.822 8.40947L11.3244 8.36ZM8.15057 8.36L7.65302 8.40947L8.10643 12.9695L8.60398 12.92L9.10152 12.8705L8.64811 8.31053L8.15057 8.36ZM13.7955 6.308V6.808H14.725V6.308V5.808H13.7955V6.308ZM13.7955 6.308L13.298 6.25853L12.6751 12.5225L13.1727 12.572L13.6702 12.6215L14.2931 6.35747L13.7955 6.308ZM11.5511 6.308V6.808H13.7955V6.308V5.808H11.5511V6.308ZM11.5511 6.08H11.0511V6.308H11.5511H12.0511V6.08H11.5511ZM7.92386 6.308V6.808H11.5511V6.308V5.808H7.92386V6.308ZM7.92386 6.08H7.42386V6.308H7.92386H8.42386V6.08H7.92386ZM4.75 6.308V6.808H5.67949V6.308V5.808H4.75V6.308ZM5.67949 6.308V6.808H7.92386V6.308V5.808H5.67949V6.308ZM6.30233 12.572L6.79988 12.5225L6.17704 6.25853L5.67949 6.308L5.18194 6.35747L5.80478 12.6215L6.30233 12.572Z" fill="var(--stroke-0, #757575)"/>
</g>
</svg>
