<svg preserveAspectRatio="none" width="100%" height="100%" overflow="visible" style="display: block;" viewBox="0 0 16.2342 22.9189" fill="none" xmlns="http://www.w3.org/2000/svg">
<path id="path14" d="M15.5277 9.76171C15.527 9.76186 7.70375 11.4789 7.70375 11.4789C5.37191 11.9908 3.90913 14.2392 4.43667 16.501C4.96452 18.7628 7.28272 20.1812 9.61456 19.6696C11.9466 19.1577 13.4092 16.9093 12.8816 14.6477C12.6173 13.5153 11.9041 12.5951 10.9651 12.0219C10.965 12.0219 10.9627 12.02 10.9618 12.0196C10.9342 12.0004 10.9163 11.9691 10.9163 11.9339C10.9163 11.8845 10.9514 11.8431 10.9989 11.832C10.999 11.8319 14.4791 11.0686 14.4798 11.0686C14.5626 11.0504 14.6485 11.0814 14.6994 11.1466C14.6997 11.1472 14.6996 11.1467 14.6996 11.1467C15.6583 12.3772 16.2342 13.9125 16.2342 15.5731C16.2342 19.4838 13.084 22.6798 9.11057 22.9068C9.07515 22.9087 8.85982 22.9169 8.78707 22.9179C7.02779 22.9447 5.24404 22.4554 3.69289 21.4018C-0.224321 18.7415 -1.17605 13.5053 1.56646 9.70612L8.52687 0.0647599C8.5566 0.0254674 8.60446 0 8.65816 0C8.71232 0 8.76033 0.025904 8.78991 0.0654875C8.78991 0.0654875 15.6249 9.51944 15.6255 9.52029C15.6429 9.54533 15.6533 9.57573 15.6533 9.60833C15.6533 9.68314 15.5997 9.74572 15.5277 9.76171" fill="var(--fill-0, #FABC26)"/>
</svg>
