<svg width="31" height="13" viewBox="0 0 31 13" fill="none" xmlns="http://www.w3.org/2000/svg">
<path fill-rule="evenodd" clip-rule="evenodd" d="M5.62168 1.67451C5.26109 2.11321 4.68415 2.45924 4.10721 2.40981C4.03509 1.81662 4.31755 1.18637 4.64809 0.79709C5.00868 0.346024 5.63971 0.024716 6.15054 0C6.21064 0.617899 5.97626 1.22344 5.62168 1.67451ZM6.14449 2.5273C5.63622 2.49722 5.17244 2.68446 4.79783 2.8357C4.55677 2.93302 4.35263 3.01544 4.19732 3.01544C4.02303 3.01544 3.81046 2.92862 3.5718 2.83113C3.25907 2.7034 2.90153 2.55736 2.5266 2.56437C1.6672 2.57673 0.867895 3.07723 0.42918 3.87432C-0.472289 5.4685 0.194798 7.82887 1.06622 9.12646C1.49291 9.76907 2.00375 10.4735 2.67684 10.4488C2.97296 10.4373 3.18598 10.3443 3.40643 10.2482C3.66022 10.1374 3.92387 10.0224 4.33554 10.0224C4.73294 10.0224 4.98506 10.1344 5.22709 10.242C5.45721 10.3442 5.6782 10.4424 6.00627 10.4364C6.7034 10.424 7.14212 9.79379 7.56881 9.15117C8.02928 8.46148 8.23163 7.78838 8.26235 7.68622L8.26595 7.67439C8.26521 7.67364 8.25953 7.67096 8.24949 7.66624L8.24949 7.66624C8.09555 7.59378 6.91902 7.04 6.90773 5.555C6.8964 4.30856 7.84093 3.67704 7.98962 3.57763C7.99867 3.57158 8.00477 3.5675 8.00753 3.56537C7.40655 2.65088 6.46902 2.55202 6.14449 2.5273ZM10.9704 10.3681V0.735026H14.4861C16.3011 0.735026 17.5691 2.02025 17.5691 3.89867C17.5691 5.77708 16.277 7.07466 14.438 7.07466H12.4247V10.3681H10.9704ZM12.4246 1.99609H14.1014C15.3634 1.99609 16.0846 2.68814 16.0846 3.9054C16.0846 5.12266 15.3634 5.82088 14.0954 5.82088H12.4246V1.99609ZM22.371 9.21275C21.9864 9.96659 21.139 10.4424 20.2255 10.4424C18.8733 10.4424 17.9298 9.61438 17.9298 8.36623C17.9298 7.13043 18.8433 6.41985 20.532 6.31481L22.347 6.20359V5.6722C22.347 4.88747 21.8482 4.46112 20.9587 4.46112C20.2255 4.46112 19.6906 4.85039 19.5825 5.44357H18.2723C18.3144 4.19542 19.4563 3.28711 21.0008 3.28711C22.6655 3.28711 23.7472 4.18306 23.7472 5.57333V10.3682H22.4011V9.21275H22.371ZM20.6161 9.29943C19.8408 9.29943 19.348 8.91634 19.348 8.32933C19.348 7.72379 19.8228 7.37159 20.7303 7.31598L22.3469 7.21094V7.75469C22.3469 8.65682 21.6017 9.29943 20.6161 9.29943ZM28.2125 10.7456C27.6295 12.4324 26.9625 12.9885 25.5441 12.9885C25.436 12.9885 25.0754 12.9762 24.9912 12.9515V11.796C25.0814 11.8083 25.3038 11.8207 25.4179 11.8207C26.061 11.8207 26.4216 11.5426 26.6439 10.8197L26.7761 10.3934L24.3121 3.38021H25.8326L27.5454 9.07105H27.5755L29.2882 3.38021H30.7667L28.2125 10.7456Z" fill="#111822"/>
</svg>
