<svg width="11" height="13" viewBox="0 0 11 13" fill="none" xmlns="http://www.w3.org/2000/svg">
<path d="M8.92267 9.27205L8.42513 9.22258V9.22258L8.92267 9.27205ZM2.05233 9.27205L1.55478 9.32152V9.32152L2.05233 9.27205ZM3.18026 11.7253L2.96569 12.1769H2.96569L3.18026 11.7253ZM2.40032 11.0154L1.97108 11.2718L1.97108 11.2718L2.40032 11.0154ZM8.57468 11.0154L9.00392 11.2718L9.00392 11.2718L8.57468 11.0154ZM7.79474 11.7253L8.00931 12.1769H8.00931L7.79474 11.7253ZM0.5 2.50806C0.223858 2.50806 0 2.73192 0 3.00806C0 3.2842 0.223858 3.50806 0.5 3.50806V3.00806V2.50806ZM10.475 3.50806C10.7511 3.50806 10.975 3.2842 10.975 3.00806C10.975 2.73192 10.7511 2.50806 10.475 2.50806V3.00806V3.50806ZM6.29296 0.546674L6.42306 0.0638969V0.0638969L6.29296 0.546674ZM7.25479 1.514L7.73793 1.38527V1.38527L7.25479 1.514ZM4.68204 0.546674L4.81214 1.02945V1.02945L4.68204 0.546674ZM3.72021 1.514L4.20336 1.64272V1.64272L3.72021 1.514ZM7.57198 5.10953C7.5993 4.83475 7.39869 4.58984 7.1239 4.56251C6.84912 4.53519 6.60421 4.7358 6.57689 5.01059L7.07443 5.06006L7.57198 5.10953ZM6.12348 9.57059C6.09615 9.84538 6.29676 10.0903 6.57155 10.1176C6.84634 10.1449 7.09125 9.94432 7.11857 9.66953L6.62102 9.62006L6.12348 9.57059ZM4.39811 5.01059C4.37079 4.7358 4.12588 4.53519 3.8511 4.56251C3.57631 4.58984 3.3757 4.83475 3.40302 5.10953L3.90057 5.06006L4.39811 5.01059ZM3.85643 9.66953C3.88375 9.94432 4.12866 10.1449 4.40345 10.1176C4.67824 10.0903 4.87885 9.84538 4.85152 9.57059L4.35398 9.62006L3.85643 9.66953ZM6.03525 11.9001V11.4001H4.93975V11.9001V12.4001H6.03525V11.9001ZM4.93975 11.9001V11.4001C4.46801 11.4001 4.14302 11.3997 3.88922 11.3798C3.64167 11.3603 3.50152 11.3244 3.39483 11.2737L3.18026 11.7253L2.96569 12.1769C3.22686 12.301 3.50257 12.3524 3.81086 12.3767C4.1129 12.4004 4.48373 12.4001 4.93975 12.4001V11.9001ZM2.05233 9.27205L1.55478 9.32152C1.60017 9.778 1.63668 10.1487 1.69016 10.4483C1.7447 10.7538 1.82281 11.0236 1.97108 11.2718L2.40032 11.0154L2.82956 10.759C2.76831 10.6565 2.71858 10.5189 2.67459 10.2725C2.62953 10.0201 2.5968 9.69453 2.54988 9.22258L2.05233 9.27205ZM3.18026 11.7253L3.39483 11.2737C3.16041 11.1623 2.96359 10.9833 2.82956 10.759L2.40032 11.0154L1.97108 11.2718C2.20614 11.6653 2.55211 11.9804 2.96569 12.1769L3.18026 11.7253ZM8.92267 9.27205L8.42513 9.22258C8.3782 9.69453 8.34547 10.0201 8.30041 10.2725C8.25642 10.5189 8.20669 10.6565 8.14544 10.759L8.57468 11.0154L9.00392 11.2718C9.15219 11.0236 9.2303 10.7538 9.28484 10.4483C9.33832 10.1487 9.37483 9.778 9.42022 9.32152L8.92267 9.27205ZM6.03525 11.9001V12.4001C6.49127 12.4001 6.8621 12.4004 7.16414 12.3767C7.47243 12.3524 7.74814 12.301 8.00931 12.1769L7.79474 11.7253L7.58017 11.2737C7.47348 11.3244 7.33333 11.3603 7.08578 11.3798C6.83198 11.3997 6.50699 11.4001 6.03525 11.4001V11.9001ZM8.57468 11.0154L8.14544 10.759C8.01141 10.9833 7.81459 11.1623 7.58017 11.2737L7.79474 11.7253L8.00931 12.1769C8.42289 11.9804 8.76886 11.6653 9.00392 11.2718L8.57468 11.0154ZM7.30114 2.32406H6.80114V2.78006H7.30114H7.80114V2.32406H7.30114ZM3.67386 2.78006H4.17386V2.32406H3.67386H3.17386V2.78006H3.67386ZM5.4875 0.500061V1.00006C5.94152 1.00006 6.0699 1.0044 6.16286 1.02945L6.29296 0.546674L6.42306 0.0638969C6.17007 -0.00427949 5.8768 6.10352e-05 5.4875 6.10352e-05V0.500061ZM7.30114 2.32406H7.80114C7.80114 1.93202 7.80539 1.63844 7.73793 1.38527L7.25479 1.514L6.77164 1.64272C6.79689 1.73748 6.80114 1.86797 6.80114 2.32406H7.30114ZM6.29296 0.546674L6.16286 1.02945C6.45873 1.10918 6.69157 1.34218 6.77164 1.64272L7.25479 1.514L7.73793 1.38527C7.56645 0.741638 7.066 0.237156 6.42306 0.0638969L6.29296 0.546674ZM5.4875 0.500061V6.10352e-05C5.0982 6.10352e-05 4.80493 -0.00427949 4.55194 0.0638969L4.68204 0.546674L4.81214 1.02945C4.9051 1.0044 5.03348 1.00006 5.4875 1.00006V0.500061ZM3.67386 2.32406H4.17386C4.17386 1.86797 4.17811 1.73748 4.20336 1.64272L3.72021 1.514L3.23707 1.38527C3.16961 1.63844 3.17386 1.93202 3.17386 2.32406H3.67386ZM4.68204 0.546674L4.55194 0.0638969C3.909 0.237156 3.40855 0.741638 3.23707 1.38527L3.72021 1.514L4.20336 1.64272C4.28343 1.34218 4.51627 1.10918 4.81214 1.02945L4.68204 0.546674ZM7.07443 5.06006L6.57689 5.01059L6.12348 9.57059L6.62102 9.62006L7.11857 9.66953L7.57198 5.10953L7.07443 5.06006ZM3.90057 5.06006L3.40302 5.10953L3.85643 9.66953L4.35398 9.62006L4.85152 9.57059L4.39811 5.01059L3.90057 5.06006ZM9.54551 3.00806V3.50806H10.475V3.00806V2.50806H9.54551V3.00806ZM9.54551 3.00806L9.04797 2.95859L8.42513 9.22258L8.92267 9.27205L9.42022 9.32152L10.0431 3.05753L9.54551 3.00806ZM7.30114 3.00806V3.50806H9.54551V3.00806V2.50806H7.30114V3.00806ZM7.30114 2.78006H6.80114V3.00806H7.30114H7.80114V2.78006H7.30114ZM3.67386 3.00806V3.50806H7.30114V3.00806V2.50806H3.67386V3.00806ZM3.67386 2.78006H3.17386V3.00806H3.67386H4.17386V2.78006H3.67386ZM0.5 3.00806V3.50806H1.42949V3.00806V2.50806H0.5V3.00806ZM1.42949 3.00806V3.50806H3.67386V3.00806V2.50806H1.42949V3.00806ZM2.05233 9.27205L2.54988 9.22258L1.92704 2.95859L1.42949 3.00806L0.931942 3.05753L1.55478 9.32152L2.05233 9.27205Z" fill="#757575"/>
</svg>
