<svg width="23" height="26" viewBox="0 0 23 26" fill="none" xmlns="http://www.w3.org/2000/svg">
<path d="M15.9615 6.822H20.2151C21.2344 6.822 22.0781 7.63087 22.0781 8.685V15.084H11.9531V7.63087C11.601 7.52512 11.2849 7.3845 11.0745 7.17412C11.0396 7.17412 11.0396 7.13925 11.0036 7.13925C11.0036 7.13925 11.0036 7.17412 10.9688 7.17412C10.7224 7.38562 10.4411 7.52625 10.125 7.63087V15.084H0V8.685C0 7.62975 0.808875 6.822 1.82812 6.822H6.11775C5.625 6.57562 5.16825 6.22463 4.78125 5.90737C3.09375 4.28963 2.77762 2.03962 4.113 0.774C4.6755 0.28125 5.4135 0 6.22237 0C7.38225 0 8.57812 0.45675 9.59737 1.40625C10.1599 1.93387 10.6875 2.67188 11.0036 3.375C11.3558 2.67188 11.8822 1.93387 12.4447 1.40625C13.4291 0.45675 14.6947 0 15.8197 0C16.6635 0 17.4015 0.28125 17.9291 0.774C19.2656 2.03962 18.9484 4.28963 17.226 5.90737C16.8739 6.2235 16.4182 6.57562 15.9615 6.822ZM9.70312 5.80275C9.84375 5.48662 9.49162 3.86887 8.33175 2.77875C7.73438 2.21625 6.9255 1.90012 6.22237 1.90012C6.01088 1.90012 5.65987 1.935 5.4135 2.1465C5.34262 2.21738 5.13225 2.358 5.13225 2.74387C5.13225 3.20062 5.4135 3.90375 6.08175 4.50225C6.9255 5.31112 8.262 5.87363 9.24638 5.87363C9.5625 5.87363 9.70312 5.80275 9.70312 5.80275ZM12.375 5.80275C12.375 5.80275 12.5505 5.87363 12.8317 5.87363C13.8161 5.87363 15.1526 5.31112 15.9964 4.50225C16.6646 3.90487 16.875 3.20175 16.875 2.74387C16.875 2.35687 16.6995 2.21625 16.6635 2.1465C16.4171 1.935 16.0301 1.90012 15.8197 1.90012C15.1515 1.90012 14.3078 2.21625 13.7104 2.77875C12.5854 3.86887 12.1984 5.45062 12.3739 5.83762V5.80275H12.375ZM10.125 25.209H1.82812C0.808875 25.209 0 24.4001 0 23.3809V16.947H10.125V25.209ZM20.2151 25.209H11.9531V16.947H22.0781V23.3809C22.0781 24.4001 21.2344 25.209 20.2151 25.209Z" fill="#143C3D"/>
</svg>
