<svg width="8" height="10" viewBox="0 0 8 10" fill="none" xmlns="http://www.w3.org/2000/svg">
<path d="M5.76388 2.4635H7.29991C7.66797 2.4635 7.97266 2.75559 7.97266 3.13625V5.447H4.31641V2.75559C4.18925 2.71741 4.07509 2.66662 3.99913 2.59066C3.98653 2.59066 3.98653 2.57806 3.97353 2.57806C3.97353 2.57806 3.97353 2.59066 3.96094 2.59066C3.87197 2.66703 3.77041 2.71781 3.65625 2.75559V5.447H0V3.13625C0 2.75519 0.292094 2.4635 0.660156 2.4635H2.20919C2.03125 2.37453 1.86631 2.24778 1.72656 2.13322C1.11719 1.54903 1.00303 0.736531 1.48525 0.2795C1.68837 0.101562 1.95488 0 2.24697 0C2.66581 0 3.09766 0.164938 3.46572 0.507812C3.66884 0.698344 3.85938 0.964844 3.97353 1.21875C4.10069 0.964844 4.29081 0.698344 4.49394 0.507812C4.84941 0.164938 5.30644 0 5.71269 0C6.01737 0 6.28387 0.101562 6.47441 0.2795C6.95703 0.736531 6.84247 1.54903 6.2205 2.13322C6.09334 2.24738 5.92881 2.37453 5.76388 2.4635ZM3.50391 2.09544C3.55469 1.98128 3.42753 1.39709 3.00869 1.00344C2.79297 0.800312 2.50087 0.686156 2.24697 0.686156C2.17059 0.686156 2.04384 0.69875 1.95487 0.775125C1.92928 0.800719 1.85331 0.8515 1.85331 0.990844C1.85331 1.15578 1.95488 1.40969 2.19619 1.62581C2.50087 1.91791 2.9835 2.12103 3.33897 2.12103C3.45312 2.12103 3.50391 2.09544 3.50391 2.09544ZM4.46875 2.09544C4.46875 2.09544 4.53212 2.12103 4.63369 2.12103C4.98916 2.12103 5.47178 1.91791 5.77647 1.62581C6.01778 1.41009 6.09375 1.15619 6.09375 0.990844C6.09375 0.851094 6.03038 0.800313 6.01737 0.775125C5.92841 0.69875 5.78866 0.686156 5.71269 0.686156C5.47137 0.686156 5.16669 0.800312 4.95097 1.00344C4.54472 1.39709 4.40497 1.96828 4.46834 2.10803V2.09544H4.46875ZM3.65625 9.10325H0.660156C0.292094 9.10325 0 8.81116 0 8.44309V6.11975H3.65625V9.10325ZM7.29991 9.10325H4.31641V6.11975H7.97266V8.44309C7.97266 8.81116 7.66797 9.10325 7.29991 9.10325Z" fill="white"/>
</svg>
