<svg width="17" height="17" viewBox="0 0 17 17" fill="none" xmlns="http://www.w3.org/2000/svg">
<path d="M14.0016 16.8116H2.80999C1.26346 16.8116 0 15.5482 0 14.0016V2.80999C0 1.26346 1.26346 0 2.80999 0H14.0016C15.5482 0 16.8116 1.26346 16.8116 2.80999V14.0016C16.8116 15.5551 15.5551 16.8116 14.0016 16.8116Z" fill="#143C3D"/>
<path d="M8.40922 12.7249C7.25622 12.7249 6.17227 12.2762 5.35758 11.4615C4.54289 10.6468 4.09412 9.56282 4.09412 8.40983C4.09412 7.25683 4.54289 6.17288 5.35758 5.35819C6.17227 4.5435 7.25622 4.09473 8.40922 4.09473C9.56221 4.09473 10.6462 4.5435 11.4609 5.35819C12.2755 6.17288 12.7243 7.25683 12.7243 8.40983C12.7243 9.56282 12.2755 10.6468 11.4609 11.4615C10.6393 12.2762 9.56221 12.7249 8.40922 12.7249ZM8.40922 5.01298C6.53819 5.01298 5.01237 6.5319 5.01237 8.40983C5.01237 10.2809 6.53128 11.8067 8.40922 11.8067C10.2802 11.8067 11.8061 10.2878 11.8061 8.40983C11.7992 6.5388 10.2802 5.01298 8.40922 5.01298Z" fill="#F5F5F5"/>
<path d="M13.5655 3.95294C14.023 3.95294 14.394 3.582 14.394 3.12442C14.394 2.66684 14.023 2.2959 13.5655 2.2959C13.1079 2.2959 12.7369 2.66684 12.7369 3.12442C12.7369 3.582 13.1079 3.95294 13.5655 3.95294Z" fill="#143C3D"/>
</svg>
