<svg width="334" height="87" viewBox="0 0 334 87" fill="none" xmlns="http://www.w3.org/2000/svg">
<path d="M29.7946 35.1855L0 69.9387H5.99049L14.9716 59.5164L17.5907 56.536L33.4167 38.166H34.717L50.543 56.536L53.1621 59.5164L62.1153 69.9387H68.1337L38.3113 35.1855H29.7946Z" fill="white"/>
<path d="M111.711 54.1167C121.398 54.1167 126.246 50.9615 126.246 44.6419C126.246 41.6891 124.937 39.371 122.327 37.6968C119.717 36.0226 116.178 35.1855 111.711 35.1855H76.3811V69.9387H80.9042V54.0615L104.495 54.1075L121.695 69.9295H128.689L110.049 54.1075H111.711V54.1167ZM80.9599 51.5686L80.9134 38.166H110.225C117.367 38.1844 120.961 40.3369 120.989 44.6327C121.027 47.3004 120.153 49.1218 118.38 50.0968C116.606 51.0719 113.903 51.5594 110.271 51.5594H80.9599V51.5686Z" fill="white"/>
<path d="M182.938 37.7704C180.346 36.0502 176.798 35.1855 172.294 35.1855H136.964V69.9387H141.487V55.0642L172.294 55.1102C177.012 55.1102 180.606 54.3375 183.095 52.7921C185.584 51.2467 186.829 48.6894 186.829 45.1203C186.829 41.9375 185.529 39.4906 182.938 37.7704ZM178.935 51.0443C177.179 52.0838 174.467 52.6081 170.799 52.6081H141.487V38.166H170.799C174.337 38.166 177.012 38.6995 178.832 39.7758C180.653 40.852 181.563 42.6274 181.563 45.1203C181.563 48.0271 180.69 50.0048 178.935 51.0443Z" fill="white"/>
<path d="M331.334 54.0157C329.561 52.5899 327.257 51.6056 324.424 51.0629C321.582 50.5109 318.443 50.1338 315.007 49.913C311.57 49.6922 308.134 49.5358 304.707 49.4439C301.28 49.3519 298.15 49.1679 295.308 48.9011C292.466 48.6344 290.163 48.064 288.398 47.181C286.624 46.2979 285.742 45.0652 285.742 43.483C285.742 41.4317 287.367 39.7851 290.627 38.5525C293.878 37.3198 298.577 36.6943 304.735 36.6943C310.577 36.6943 315.982 37.1726 320.96 38.1385C325.938 39.1044 329.013 40.6038 330.183 42.6551H331.697V37.4946C329.115 36.2344 325.39 35.2869 320.514 34.6613C315.638 34.0266 310.372 33.7139 304.735 33.7139C296.822 33.7139 290.822 34.505 286.726 36.078C282.63 37.651 280.587 40.1807 280.587 43.6486C280.587 45.8287 281.469 47.5857 283.243 48.9103C285.017 50.235 287.321 51.1364 290.153 51.6148C292.995 52.0931 296.135 52.4059 299.571 52.5715C303.007 52.737 306.444 52.8566 309.871 52.9486C313.298 53.0406 316.428 53.243 319.27 53.5557C322.112 53.8685 324.415 54.54 326.18 55.5519C327.954 56.5729 328.836 57.9712 328.836 59.7649C328.836 62.451 327.025 64.5667 323.403 66.1305C319.781 67.6851 314.515 68.467 307.595 68.467C294.974 68.4486 285.649 66.3053 279.63 62.0463L278.971 65.919C281.711 67.5379 285.612 68.8534 290.683 69.8836C295.744 70.9047 301.391 71.4198 307.605 71.4198C316.4 71.4198 322.994 70.5 327.397 68.6694C331.799 66.8388 334 63.8032 334 59.5718C333.991 57.2905 333.108 55.4415 331.334 54.0157Z" fill="white"/>
<path d="M248.034 47.6686C250.774 46.0864 253.56 44.5778 256.142 42.7656C261.9 38.7273 266.507 33.2448 272.256 29.1973C276.408 26.2721 281.423 23.7424 283.215 19.0234C284.571 15.4359 283.531 11.0849 280.68 8.49081C277.838 5.89674 273.371 5.21603 269.869 6.85342C265.876 8.72078 263.665 12.9246 261.575 16.7789C258.436 22.5834 254.953 28.2131 251.155 33.6128C249.743 35.6181 248.285 37.6051 246.465 39.2517C244.245 41.2662 241.57 42.7012 239.127 44.4306C232.431 49.1496 227.648 55.8004 222.883 62.5063V56.9778V53.2707V35.195H218.36V68.7523C216.698 70.96 214.98 73.1125 213.122 75.1363C211.961 76.3965 210.717 77.6292 209.138 78.3007C207.559 78.9722 205.581 78.9814 204.262 77.8959C203.268 77.0772 202.794 75.8078 202.46 74.5752C200.732 68.1176 201.801 61.2552 203.463 54.7885C205.125 48.3125 207.373 41.9377 207.995 35.287C208.283 32.2421 208.181 29.0134 206.621 26.3733C205.06 23.7333 201.652 21.9763 198.791 23.1261L199.767 22.8502C197.686 22.887 196.107 24.9475 195.856 26.9896C195.606 29.041 196.321 31.0647 196.99 33.0148C200.435 43.106 202.766 53.8594 201.15 64.3828C200.435 69.019 198.977 73.5081 198.011 78.0983C197.575 80.1496 197.277 82.4125 198.299 84.2431C199.525 86.4416 202.404 87.3431 204.893 86.8832C207.382 86.4232 209.528 84.8686 211.357 83.1208C213.15 81.4099 214.729 79.4873 216.057 77.3992C218.1 74.1796 219.531 70.5921 221.797 67.5289C223.831 64.7784 226.487 62.5523 229.18 60.4274C232.357 57.9253 235.645 55.552 239.007 53.2983L265.606 69.9297H273.733L242.619 50.9434C244.403 49.8211 246.204 48.7265 248.034 47.6686Z" fill="white"/>
<path d="M197.361 10.5697C198.123 10.3029 198.782 9.78782 199.284 9.1531C200.51 7.5985 200.714 5.32638 199.776 3.5878C198.838 1.84922 196.813 0.745368 194.826 0.89255L194.315 0.000262621C192.42 -0.0273338 191.278 2.12519 191.12 3.99255C190.971 5.77712 191.361 7.66287 192.504 9.04269C193.665 10.4225 195.661 11.1768 197.361 10.5697Z" fill="white"/>
<path d="M37.0946 57.6308C34.1597 56.067 32.1443 54.7792 29.5252 56.8121C26.8597 58.5139 25.7266 61.7887 27.2684 64.5299C28.7358 67.1516 31.0391 69.4237 33.9368 70.2976C36.8346 71.1715 40.3174 70.3804 42.1192 67.9795C42.9272 66.9032 43.3638 65.5786 43.4752 64.2355C43.726 60.9424 40.0295 59.1946 37.0946 57.6308Z" fill="white"/>
</svg>
