<svg width="19" height="17" viewBox="0 0 19 17" fill="none" xmlns="http://www.w3.org/2000/svg">
<path d="M5.72973 0C4.81612 0.119957 3.92594 0.47044 3.15135 1.05138L1.05045 2.62706C0.389177 3.12301 0 3.90137 0 4.72796V12.9683C0 15.0816 2.4126 16.2879 4.10323 15.0199C4.59551 14.6507 5.15299 14.4124 5.72973 14.3051V0Z" fill="#ADADAD"/>
<path d="M7.16216 14.3051C7.73891 14.4124 8.29638 14.6507 8.78867 15.0199L8.88108 15.0892C9.65567 15.6702 10.5459 16.0206 11.4595 16.1406V1.83555C10.8827 1.72818 10.3252 1.48991 9.83296 1.1207L9.74054 1.05138C8.96595 0.47044 8.07577 0.119957 7.16216 2.63082e-10V14.3051Z" fill="#ADADAD"/>
<path d="M12.8919 1.83555V16.1406C13.8055 16.0206 14.6957 15.6702 15.4703 15.0892L17.5712 13.5135C18.2324 13.0176 18.6216 12.2392 18.6216 11.4126V3.17231C18.6216 1.05903 16.209 -0.147271 14.5184 1.1207C14.0261 1.48991 13.4686 1.72818 12.8919 1.83555Z" fill="#ADADAD"/>
</svg>
