<svg width="26" height="16" viewBox="0 0 26 16" fill="none" xmlns="http://www.w3.org/2000/svg">
<path d="M18.1123 0C22.4665 8.78838e-05 25.9961 3.56178 25.9961 7.95508C25.996 12.3483 22.4664 15.9101 18.1123 15.9102C16.16 15.9102 14.375 15.1918 12.998 14.0059C11.6211 15.1917 9.83604 15.9102 7.88379 15.9102C3.52973 15.91 0.000116721 12.3482 0 7.95508C0 3.56183 3.52965 0.000156615 7.88379 0C9.83569 0 11.6212 0.716869 12.998 1.90234C14.3749 0.716832 16.1604 0 18.1123 0Z" fill="#111822"/>
<path d="M18.1123 0C22.4664 0.000153015 25.9961 3.56182 25.9961 7.95508C25.996 12.3482 22.4664 15.91 18.1123 15.9102C16.16 15.9102 14.375 15.1917 12.998 14.0059C14.6922 12.5468 15.7685 10.3785 15.7686 7.95508C15.7686 5.53116 14.6926 3.3614 12.998 1.90234C14.3749 0.716868 16.1604 0 18.1123 0Z" fill="#111822"/>
<path d="M12.9976 1.90234C14.6923 3.36141 15.7681 5.53102 15.7681 7.95508C15.768 10.3787 14.6919 12.5468 12.9976 14.0059C11.3036 12.5468 10.2281 10.3784 10.228 7.95508C10.228 5.53132 11.3031 3.3614 12.9976 1.90234Z" fill="#111822"/>
</svg>
