<svg width="24" height="23" viewBox="0 0 24 23" fill="none" xmlns="http://www.w3.org/2000/svg">
<path fill-rule="evenodd" clip-rule="evenodd" d="M13.2153 13.6758C13.5848 13.676 13.8325 13.9191 13.8325 14.2246V17.5674C13.8325 17.9318 14.0764 18.1747 14.3832 18.1748H16.0434C16.3502 18.1748 16.4727 18.355 16.2289 18.5391C16.2289 18.5391 16.2291 18.5398 12.0502 22.7334C11.9246 22.8548 11.7728 22.9169 11.6176 22.917C11.466 22.917 11.31 22.8549 11.1879 22.7334C11.1879 22.7334 11.1881 22.7327 7.00922 18.5391C6.76187 18.3551 6.88405 18.1748 7.19086 18.1748H8.97309C9.28372 18.1748 9.52777 17.9319 9.52777 17.5674V14.2246C9.52777 13.9191 9.77557 13.6758 10.0825 13.6758H13.2153ZM4.73187 6.69238C4.80946 6.72918 4.85778 6.83581 4.85785 6.99023V15.8643C4.85777 16.0186 4.80939 16.1102 4.73187 16.1396C4.65795 16.1691 4.5509 16.1398 4.42523 16.0479C4.42523 16.0479 4.4247 16.0482 0.183047 11.792C-0.0610211 11.6116 -0.0610101 11.243 0.183047 11C0.183047 11 0.183535 11.0003 4.42523 6.80664C4.55093 6.68522 4.65793 6.65557 4.73187 6.69238ZM18.6176 6.78711C18.6879 6.76518 18.7801 6.81027 18.8725 6.93164C18.8768 6.93579 19.0084 7.06331 23.0512 11.0029C23.2953 11.2459 23.2953 11.6145 23.0512 11.7949C23.0464 11.7996 22.9077 11.937 18.8725 15.9297C18.7802 16.051 18.6878 16.0806 18.6176 16.0439C18.5474 16.0071 18.5034 15.8998 18.5034 15.7451V7.05273C18.5034 6.90178 18.5474 6.8092 18.6176 6.78711ZM12.0502 0.118164C12.0532 0.12114 12.1656 0.232032 16.351 4.37402C16.5359 4.61699 16.4733 4.80072 16.1664 4.80078C16.1664 4.80078 16.1663 4.80078 14.3842 4.80078C14.0773 4.80078 13.8326 5.04411 13.8325 5.34961C13.8325 5.34961 13.8325 5.34981 13.8325 8.50879C13.8325 8.81437 13.5851 9.0576 13.2153 9.05762C13.2153 9.05762 13.2152 9.05762 10.0834 9.05762C9.7765 9.05762 9.52777 8.81438 9.52777 8.50879V5.34961C9.52767 5.04411 9.28366 4.80078 8.97309 4.80078H7.06879C6.76204 4.80069 6.69936 4.61697 6.88422 4.37402C6.88763 4.37065 7.00731 4.25279 11.1889 0.118164L11.4702 0H11.7661L12.0502 0.118164Z" fill="#ED1C24"/>
</svg>
