<svg width="16" height="21" viewBox="0 0 16 21" fill="none" xmlns="http://www.w3.org/2000/svg">
<path fill-rule="evenodd" clip-rule="evenodd" d="M10.2952 17.8581C12.5009 15.0454 15.2793 10.959 15.2793 8.22092C15.2793 3.68063 11.8589 0 7.63964 0C3.42038 0 0 3.68063 0 8.22092C0 10.959 2.7784 15.0454 4.98411 17.8581C6.13487 19.3256 6.71024 20.0593 7.63964 20.0593C8.56903 20.0593 9.14441 19.3256 10.2952 17.8581ZM11.0622 7.13406C11.3104 6.82605 11.2619 6.37517 10.9539 6.12699C10.6459 5.8788 10.195 5.9273 9.94681 6.23531L8.01636 8.63109C7.61998 9.12301 7.36988 9.43066 7.16173 9.62505C7.06391 9.7164 7.00143 9.75704 6.96553 9.77501C6.9388 9.78838 6.92924 9.78832 6.92412 9.78829H6.92273C6.9176 9.78832 6.90805 9.78838 6.88132 9.77501C6.84541 9.75704 6.78293 9.7164 6.68512 9.62505C6.47697 9.43066 6.22686 9.12301 5.83048 8.63108L5.33247 8.01303C5.08429 7.70502 4.63341 7.65652 4.3254 7.90471C4.01739 8.15289 3.96889 8.60377 4.21708 8.91178L4.74619 9.56844C5.10193 10.01 5.41577 10.3996 5.70743 10.6719C6.02057 10.9644 6.40991 11.2207 6.92342 11.2207C7.43694 11.2207 7.82627 10.9644 8.13942 10.6719C8.43108 10.3996 8.74491 10.01 9.10064 9.56846L11.0622 7.13406Z" fill="#143C3D"/>
</svg>
