<svg width="15" height="15" viewBox="0 0 15 15" fill="none" xmlns="http://www.w3.org/2000/svg">
<path d="M14.9206 5.40054C14.8249 5.12739 14.5695 4.93914 14.2759 4.92538H9.66057L8.19538 0.476205C8.09105 0.177918 7.79792 -0.0160791 7.47744 0.00104947C7.1637 -0.00116529 6.88483 0.197079 6.7888 0.490603L5.32361 4.93978H0.722921C0.413886 4.9377 0.138168 5.13019 0.0384481 5.41764C-0.0612719 5.7051 0.037385 6.02301 0.283365 6.20686L4.01959 8.9858L2.55441 13.4638C2.4509 13.7578 2.55554 14.0837 2.81198 14.266C3.06842 14.4484 3.41614 14.4442 3.66795 14.2557L7.58 11.376L11.5067 14.2557C11.629 14.3471 11.7779 14.3976 11.9316 14.3997C12.1655 14.4029 12.3864 14.2939 12.5235 14.1076C12.6605 13.9213 12.6967 13.6811 12.6202 13.4638L11.1551 8.9858L14.818 6.19246C15.0155 5.9747 15.0563 5.65997 14.9206 5.40054Z" fill="#143C3D"/>
</svg>
