<svg width="18" height="17" viewBox="0 0 18 17" fill="none" xmlns="http://www.w3.org/2000/svg">
<path d="M17.2551 0.23095C16.9551 -0.0361698 16.4839 -0.0743898 15.9967 0.13099H15.9959C15.4835 0.34687 1.49152 6.64855 0.921923 6.90601C0.818323 6.94381 -0.0864765 7.29829 0.00672355 8.08789C0.0899236 8.79979 0.817123 9.09463 0.905923 9.12865L4.46312 10.4075C4.69912 11.2324 5.56912 14.2758 5.76152 14.9259C5.88152 15.3312 6.07712 15.8638 6.41992 15.9734C6.72072 16.0952 7.01992 15.9839 7.21352 15.8243L9.38832 13.7062L12.8991 16.5811L12.9827 16.6336C13.2211 16.7445 13.4495 16.8 13.6675 16.8C13.8359 16.8 13.9975 16.7668 14.1519 16.7004C14.6779 16.4736 14.8883 15.9474 14.9103 15.8877L17.5327 1.57537C17.6927 0.81097 17.4703 0.42205 17.2551 0.23095ZM7.60032 10.9191L6.40032 14.2791L5.20032 10.0791L14.4003 2.93911L7.60032 10.9191Z" fill="#143C3D"/>
</svg>
