<svg width="17" height="23" viewBox="0 0 17 23" fill="none" xmlns="http://www.w3.org/2000/svg">
<path d="M15.5277 13.1572C15.527 13.1571 7.70375 11.44 7.70375 11.44C5.37191 10.9282 3.90913 8.67977 4.43667 6.41797C4.96452 4.15617 7.28272 2.73772 9.61456 3.24938C11.9466 3.76123 13.4092 6.00961 12.8816 8.27126C12.6173 9.40363 11.9041 10.3238 10.9651 10.897C10.965 10.897 10.9627 10.8989 10.9618 10.8994C10.9342 10.9186 10.9163 10.9499 10.9163 10.9851C10.9163 11.0344 10.9514 11.0759 10.9989 11.0869C10.999 11.0871 14.4791 11.8504 14.4798 11.8504C14.5626 11.8686 14.6485 11.8376 14.6994 11.7724C14.6997 11.7718 14.6996 11.7722 14.6996 11.7722C15.6583 10.5418 16.2342 9.00646 16.2342 7.34585C16.2342 3.4351 13.084 0.239128 9.11057 0.0121326C9.07515 0.0102329 8.85982 0.0020752 8.78707 0.00106812C7.02779 -0.0257187 5.24404 0.463552 3.69289 1.51716C-0.224321 4.17741 -1.17605 9.41366 1.56646 13.2128L8.52687 22.8542C8.5566 22.8935 8.60446 22.9189 8.65816 22.9189C8.71232 22.9189 8.76033 22.893 8.78991 22.8535C8.78991 22.8535 15.6249 13.3995 15.6255 13.3987C15.6429 13.3736 15.6533 13.3432 15.6533 13.3106C15.6533 13.2358 15.5997 13.1732 15.5277 13.1572Z" fill="#FABC26"/>
</svg>
