<svg width="38" height="13" viewBox="0 0 38 13" fill="none" xmlns="http://www.w3.org/2000/svg">
<path fill-rule="evenodd" clip-rule="evenodd" d="M9.4696 12.6081H6.1916L3.7335 2.75054C3.61683 2.29709 3.3691 1.89622 3.0047 1.70728C2.0953 1.23247 1.0932 0.854601 0 0.664021V0.284505H5.2806C6.0094 0.284505 6.556 0.854601 6.6471 1.5167L7.9225 8.62729L11.1989 0.284505H14.3858L9.4696 12.6081ZM16.2078 12.6081H13.112L15.6612 0.284505H18.757L16.2078 12.6081ZM22.7622 3.69823C22.8533 3.03449 23.3999 2.65497 24.0376 2.65497C25.0397 2.55968 26.1313 2.75026 27.0423 3.22342L27.5889 0.570096C26.6779 0.190579 25.6758 0 24.7664 0C21.7617 0 19.5753 1.707 19.5753 4.0761C19.5753 5.87839 21.124 6.82472 22.2172 7.39481C23.3999 7.96327 23.8554 8.34278 23.7643 8.91124C23.7643 9.76392 22.8533 10.1434 21.9439 10.1434C20.8507 10.1434 19.7575 9.8592 18.757 9.3844L18.2104 12.0394C19.3036 12.5125 20.4863 12.7031 21.5795 12.7031C24.9486 12.7968 27.0423 11.0914 27.0423 8.53172C27.0423 5.3083 22.7622 5.11936 22.7622 3.69823ZM37.8768 12.6081L35.4187 0.284505H32.7784C32.2318 0.284505 31.6852 0.664021 31.503 1.23247L26.9512 12.6081H30.1381L30.7742 10.8074H34.6899L35.0543 12.6081H37.8768ZM33.2339 3.60286L34.1433 8.24742H31.5941L33.2339 3.60286Z" fill="#111822"/>
</svg>
