<svg width="20" height="20" viewBox="0 0 20 20" fill="none" xmlns="http://www.w3.org/2000/svg">
<path d="M18.9464 5.64292C18.448 4.54167 17.7326 3.55295 16.8243 2.70088C15.916 1.85686 14.8629 1.18968 13.6893 0.723451C12.4755 0.24115 11.1894 0 9.86307 0C8.53674 0 7.2506 0.24115 6.03681 0.723451C4.86321 1.18968 3.81018 1.84882 2.90185 2.70088C1.99352 3.55295 1.27811 4.54167 0.779735 5.64292C0.265281 6.78437 0 8.0062 0 9.26018C0 11.4546 0.819903 13.5607 2.32307 15.2327L1.51924 19.6136L5.79566 17.7085C7.07375 18.2551 8.43223 18.5284 9.85502 18.5284C11.1813 18.5284 12.4675 18.2872 13.6813 17.8049C14.8549 17.3387 15.9079 16.6796 16.8162 15.8275C17.7246 14.9754 18.44 13.9867 18.9384 12.8855C19.4528 11.744 19.7181 10.5222 19.7181 9.26821C19.7261 8.00619 19.4609 6.7924 18.9464 5.64292Z" fill="#143C3D"/>
<path d="M13.8662 11.1088C13.4482 10.8998 13.1428 10.7712 12.9258 10.6908C12.7891 10.6426 12.4676 10.4979 12.355 10.5863C12.0013 10.8757 11.6235 11.6956 11.2216 11.8483C10.2249 11.6554 9.30045 10.9722 8.577 10.2728C8.25547 9.96736 7.66063 9.09922 7.53202 8.86611C7.5079 8.62496 7.94196 8.30343 8.03842 8.11854C8.5368 7.55586 8.15901 7.20217 8.0947 6.96906C7.98217 6.72791 7.78925 6.29384 7.62045 5.94015C7.47576 5.70704 7.44357 5.36139 7.18635 5.23278C6.09313 4.67009 5.46617 5.79546 5.20894 6.38226C3.65754 10.1201 12.982 17.234 14.8791 12.3306C14.9755 11.9046 14.9353 11.7438 14.7906 11.5509C14.5013 11.35 14.1636 11.2615 13.8662 11.1088Z" fill="#F5F5F5"/>
</svg>
