<svg width="22" height="14" viewBox="0 0 22 14" fill="none" xmlns="http://www.w3.org/2000/svg">
<path d="M4.33344 10.6043C4.00207 10.6043 3.73344 10.8729 3.73344 11.2043C3.73344 11.5357 4.00207 11.8043 4.33344 11.8043V11.2043V10.6043ZM13.4887 0.888488L13.7579 0.352274L13.7579 0.352274L13.4887 0.888488ZM14.6627 2.04529L14.1298 2.32089V2.32089L14.6627 2.04529ZM4.33345 -2.44379e-05C4.00208 -3.0756e-05 3.73345 0.268593 3.73344 0.599964C3.73343 0.931335 4.00206 1.19997 4.33343 1.19998L4.33344 0.599976L4.33345 -2.44379e-05ZM14.9555 4.57056V3.97056H14.3555V4.57056H14.9555ZM20.9268 10.9151L20.3938 10.6395V10.6395L20.9268 10.9151ZM20.6333 11.2043L20.9025 11.7405H20.9025L20.6333 11.2043ZM19.3498 4.89514L19.0806 5.43135V5.43135L19.3498 4.89514ZM20.6706 6.19655L21.2035 5.92095V5.92095L20.6706 6.19655ZM2.11109 3.74998C1.77972 3.74998 1.51109 4.0186 1.51109 4.34998C1.51109 4.68135 1.77972 4.94998 2.11109 4.94998V4.34998V3.74998ZM5.88887 4.94998C6.22024 4.94998 6.48887 4.68135 6.48887 4.34998C6.48887 4.0186 6.22024 3.74998 5.88887 3.74998V4.34998V4.94998ZM0.599976 6.74998C0.268605 6.74998 -2.44379e-05 7.0186 -2.44379e-05 7.34998C-2.44379e-05 7.68135 0.268605 7.94998 0.599976 7.94998V7.34998V6.74998ZM6.64443 7.94998C6.9758 7.94998 7.24443 7.68135 7.24443 7.34998C7.24443 7.0186 6.9758 6.74998 6.64443 6.74998V7.34998V7.94998ZM7.1649 0.599976V1.19998H10.6573V0.599976V-2.44379e-05H7.1649V0.599976ZM14.9555 4.83527H14.3555V11.2764H14.9555H15.5555V4.83527H14.9555ZM10.6573 0.599976V1.19998C11.4193 1.19998 11.9552 1.20043 12.3735 1.2341C12.7851 1.26724 13.0301 1.32959 13.2195 1.4247L13.4887 0.888488L13.7579 0.352274C13.3727 0.15887 12.9542 0.07697 12.4698 0.0379745C11.9922 -0.000477552 11.3998 -2.44379e-05 10.6573 -2.44379e-05V0.599976ZM14.9555 4.83527H15.5555C15.5555 4.10407 15.556 3.51905 15.5169 3.04711C15.4771 2.56789 15.3935 2.15228 15.1957 1.7697L14.6627 2.04529L14.1298 2.32089C14.2247 2.50455 14.2875 2.74268 14.321 3.14627C14.355 3.55713 14.3555 4.08398 14.3555 4.83527H14.9555ZM13.4887 0.888488L13.2195 1.4247C13.6128 1.62217 13.9309 1.93641 14.1298 2.32089L14.6627 2.04529L15.1957 1.7697C14.8794 1.15803 14.3756 0.66237 13.7579 0.352274L13.4887 0.888488ZM7.1649 0.599976V-2.44379e-05C5.66036 -2.44379e-05 4.75554 -1.63913e-05 4.33345 -2.44379e-05L4.33344 0.599976L4.33343 1.19998C4.75553 1.19998 5.66038 1.19998 7.1649 1.19998V0.599976ZM14.9555 4.57056V5.17056H16.1644V4.57056V3.97056H14.9555V4.57056ZM21 9.33527H20.4V10.2176H21H21.6V9.33527H21ZM14.9555 4.83527H15.5555V4.57056H14.9555H14.3555V4.83527H14.9555ZM21 10.2176H20.4C20.4 10.413 20.3995 10.5229 20.3929 10.6027C20.3869 10.6752 20.379 10.6682 20.3938 10.6395L20.9268 10.9151L21.4597 11.1907C21.5478 11.0205 21.5765 10.85 21.5888 10.7018C21.6005 10.561 21.6 10.3929 21.6 10.2176H21ZM19.9254 11.2764V11.8764C20.1037 11.8764 20.273 11.8769 20.4147 11.8655C20.5631 11.8535 20.7328 11.8257 20.9025 11.7405L20.6333 11.2043L20.3641 10.6681C20.3901 10.655 20.3939 10.6633 20.3184 10.6694C20.236 10.676 20.1232 10.6764 19.9254 10.6764V11.2764ZM20.9268 10.9151L20.3938 10.6395C20.3882 10.6504 20.3783 10.661 20.3641 10.6681L20.6333 11.2043L20.9025 11.7405C21.141 11.6208 21.3366 11.4288 21.4597 11.1907L20.9268 10.9151ZM16.1644 4.57056V5.17056C17.0205 5.17056 17.627 5.17102 18.1013 5.2092C18.5688 5.24684 18.8552 5.31821 19.0806 5.43135L19.3498 4.89514L19.619 4.35893C19.1979 4.14749 18.7379 4.05657 18.1976 4.01307C17.6639 3.97011 17.001 3.97056 16.1644 3.97056V4.57056ZM21 9.33527H21.6C21.6 8.51141 21.6005 7.8569 21.5567 7.32978C21.5124 6.79539 21.4197 6.33892 21.2035 5.92095L20.6706 6.19655L20.1376 6.47214C20.2509 6.69119 20.3228 6.97018 20.3609 7.42894C20.3995 7.89498 20.4 8.49132 20.4 9.33527H21ZM19.3498 4.89514L19.0806 5.43135C19.5371 5.66055 19.9066 6.0254 20.1376 6.47214L20.6706 6.19655L21.2035 5.92095C20.855 5.24703 20.2999 4.70075 19.619 4.35893L19.3498 4.89514ZM8.23947 11.2764H7.63947C7.63947 11.6677 7.31511 12 6.89626 12V12.6V13.2C7.96109 13.2 8.83947 12.3471 8.83947 11.2764H8.23947ZM6.89626 12.6V12C6.47742 12 6.15305 11.6677 6.15305 11.2764H5.55305H4.95305C4.95305 12.3471 5.83144 13.2 6.89626 13.2V12.6ZM6.89626 9.95292V10.5529C7.31511 10.5529 7.63947 10.8852 7.63947 11.2764H8.23947H8.83947C8.83947 10.2058 7.96109 9.35292 6.89626 9.35292V9.95292ZM14.9555 11.2764V10.6764H8.23947V11.2764V11.8764H14.9555V11.2764ZM5.55305 11.2764H6.15305C6.15305 11.2718 6.15309 11.2671 6.15318 11.2625L5.55329 11.2511L4.9534 11.2396C4.95317 11.2519 4.95305 11.2641 4.95305 11.2764H5.55305ZM5.55329 11.2511L6.15318 11.2625C6.16053 10.8776 6.48242 10.5529 6.89626 10.5529V9.95292V9.35292C5.84364 9.35292 4.97351 10.186 4.9534 11.2396L5.55329 11.2511ZM5.55329 11.2511L5.58931 10.6521C5.0612 10.6204 4.77494 10.6043 4.33344 10.6043V11.2043V11.8043C4.73613 11.8043 4.99148 11.8184 5.51728 11.85L5.55329 11.2511ZM19.321 11.2764H18.721C18.721 11.6677 18.3966 12 17.9778 12V12.6V13.2C19.0426 13.2 19.921 12.3471 19.921 11.2764H19.321ZM17.9778 12.6V12C17.5589 12 17.2345 11.6677 17.2345 11.2764H16.6345H16.0345C16.0345 12.3471 16.9129 13.2 17.9778 13.2V12.6ZM16.6345 11.2764H17.2345C17.2345 10.8852 17.5589 10.5529 17.9778 10.5529V9.95292V9.35292C16.9129 9.35292 16.0345 10.2058 16.0345 11.2764H16.6345ZM17.9778 9.95292V10.5529C18.3966 10.5529 18.721 10.8852 18.721 11.2764H19.321H19.921C19.921 10.2058 19.0426 9.35292 17.9778 9.35292V9.95292ZM19.9254 11.2764V10.6764H19.321V11.2764V11.8764H19.9254V11.2764ZM16.6345 11.2764V10.6764H14.9555V11.2764V11.8764H16.6345V11.2764ZM2.11109 4.34998V4.94998H5.88887V4.34998V3.74998H2.11109V4.34998ZM0.599976 7.34998V7.94998H6.64443V7.34998V6.74998H0.599976V7.34998Z" fill="#757575"/>
</svg>
