<svg width="124" height="32" viewBox="0 0 124 32" fill="none" xmlns="http://www.w3.org/2000/svg">
<path d="M11.0615 12.9419L0 25.7247H2.22401L5.55831 21.8912L6.53067 20.7949L12.4062 14.0381H12.8889L18.7645 20.7949L19.7368 21.8912L23.0608 25.7247H25.2951L14.2234 12.9419H11.0615Z" fill="#111822"/>
<path d="M41.4735 19.9051C45.0698 19.9051 46.8697 18.7445 46.8697 16.4201C46.8697 15.334 46.3835 14.4814 45.4146 13.8656C44.4457 13.2498 43.132 12.9419 41.4735 12.9419H28.3569V25.7247H30.0361V19.8848L38.7943 19.9017L45.1801 25.7213H47.7765L40.8562 19.9017H41.4735V19.9051ZM30.0568 18.9679L30.0396 14.0381H40.9218C43.5733 14.0449 44.9077 14.8366 44.9181 16.4167C44.9319 17.3979 44.6078 18.0679 43.9492 18.4265C43.2906 18.7851 42.2872 18.9645 40.939 18.9645H30.0568V18.9679Z" fill="#111822"/>
<path d="M67.9169 13.8926C66.9549 13.2599 65.6377 12.9419 63.9654 12.9419H50.8489V25.7247H52.5281V20.2536L63.9654 20.2705C65.717 20.2705 67.0514 19.9863 67.9755 19.4179C68.8996 18.8494 69.3616 17.9088 69.3616 16.596C69.3616 15.4254 68.8789 14.5254 67.9169 13.8926ZM66.4308 18.775C65.7791 19.1573 64.7722 19.3502 63.4103 19.3502H52.5281V14.0381H63.4103C64.724 14.0381 65.717 14.2344 66.3928 14.6302C67.0687 15.0261 67.4066 15.6791 67.4066 16.596C67.4066 17.6652 67.0825 18.3927 66.4308 18.775Z" fill="#111822"/>
<path d="M123.01 19.8679C122.352 19.3434 121.497 18.9814 120.445 18.7818C119.39 18.5788 118.224 18.44 116.949 18.3588C115.673 18.2776 114.397 18.2201 113.125 18.1863C111.852 18.1524 110.69 18.0848 109.635 17.9867C108.58 17.8885 107.725 17.6788 107.07 17.3539C106.411 17.0291 106.084 16.5757 106.084 15.9938C106.084 15.2393 106.687 14.6336 107.897 14.1802C109.104 13.7269 110.849 13.4968 113.135 13.4968C115.304 13.4968 117.311 13.6727 119.159 14.028C121.007 14.3832 122.148 14.9348 122.583 15.6893H123.145V13.7911C122.186 13.3276 120.804 12.9791 118.993 12.749C117.183 12.5156 115.228 12.4005 113.135 12.4005C110.197 12.4005 107.97 12.6915 106.449 13.2701C104.929 13.8487 104.17 14.7791 104.17 16.0547C104.17 16.8566 104.498 17.5028 105.156 17.99C105.815 18.4773 106.67 18.8088 107.722 18.9848C108.777 19.1607 109.942 19.2758 111.218 19.3367C112.494 19.3976 113.77 19.4415 115.042 19.4754C116.314 19.5092 117.476 19.5837 118.531 19.6987C119.586 19.8137 120.442 20.0607 121.097 20.4329C121.755 20.8085 122.083 21.3228 122.083 21.9825C122.083 22.9705 121.41 23.7487 120.066 24.3239C118.721 24.8957 116.766 25.1833 114.197 25.1833C109.511 25.1765 106.049 24.3882 103.815 22.8216L103.57 24.2461C104.587 24.8416 106.035 25.3254 107.918 25.7044C109.797 26.0799 111.894 26.2694 114.201 26.2694C117.466 26.2694 119.914 25.931 121.548 25.2577C123.183 24.5844 124 23.4679 124 21.9115C123.997 21.0724 123.669 20.3923 123.01 19.8679Z" fill="#111822"/>
<path d="M92.0845 17.5333C93.1017 16.9513 94.1361 16.3964 95.0947 15.7299C97.2325 14.2445 98.9427 12.228 101.077 10.7392C102.618 9.6633 104.48 8.73284 105.146 6.99712C105.649 5.67757 105.263 4.07719 104.204 3.12305C103.149 2.16891 101.491 1.91853 100.191 2.52079C98.7083 3.20764 97.8876 4.75388 97.1118 6.17155C95.9463 8.30653 94.6533 10.3772 93.243 12.3633C92.7189 13.1009 92.1776 13.8317 91.5018 14.4374C90.6777 15.1784 89.6846 15.7062 88.7778 16.3423C86.2917 18.078 84.5159 20.5243 82.7471 22.9908V20.9573V19.5938V12.9453H81.0679V25.2882C80.4506 26.1002 79.8127 26.892 79.1231 27.6363C78.6921 28.0999 78.2301 28.5532 77.6439 28.8002C77.0577 29.0472 76.3233 29.0506 75.8337 28.6514C75.4647 28.3502 75.2889 27.8833 75.1647 27.4299C74.5234 25.0547 74.9199 22.5307 75.5371 20.1521C76.1543 17.7701 76.9888 15.4254 77.2198 12.9791C77.3267 11.8592 77.2887 10.6716 76.7095 9.70053C76.1302 8.72947 74.8647 8.08321 73.8027 8.50615L74.1648 8.40465C73.3924 8.41818 72.8062 9.17608 72.7131 9.92721C72.62 10.6817 72.8855 11.4261 73.1338 12.1434C74.413 15.8551 75.2785 19.8103 74.6786 23.681C74.413 25.3863 73.8717 27.0374 73.5131 28.7258C73.351 29.4803 73.2407 30.3126 73.62 30.986C74.0751 31.7946 75.144 32.1262 76.0681 31.957C76.9922 31.7879 77.7887 31.216 78.468 30.5732C79.1335 29.9438 79.7196 29.2367 80.2127 28.4687C80.9713 27.2844 81.5023 25.9649 82.3436 24.8382C83.0988 23.8265 84.0849 23.0077 85.0849 22.2261C86.2641 21.3058 87.4847 20.4329 88.7329 19.604L98.6083 25.7213H101.625L90.0742 18.7378C90.7363 18.325 91.4052 17.9224 92.0845 17.5333Z" fill="#143C3D"/>
<path d="M73.2717 3.88771C73.5544 3.78959 73.7992 3.60012 73.9854 3.36666C74.4406 2.79485 74.5164 1.95913 74.1682 1.31965C73.8199 0.680173 73.0682 0.274159 72.3304 0.328294L72.1407 9.65961e-05C71.4373 -0.0100538 71.0132 0.781678 70.9546 1.46852C70.8994 2.12492 71.0442 2.81853 71.4683 3.32605C71.8993 3.83357 72.6407 4.11102 73.2717 3.88771Z" fill="#143C3D"/>
<path d="M13.7717 21.1976C12.6821 20.6224 11.9339 20.1487 10.9615 20.8964C9.97193 21.5224 9.55127 22.7269 10.1237 23.7352C10.6684 24.6995 11.5236 25.5352 12.5994 25.8566C13.6752 26.178 14.9682 25.8871 15.6371 25.004C15.9371 24.6081 16.0992 24.1209 16.1406 23.6269C16.2337 22.4156 14.8613 21.7728 13.7717 21.1976Z" fill="#143C3D"/>
</svg>
